<?xml version="1.0" encoding="utf-8"?>
<!-- Generator: Fusion 360, Shaper Origin Export Add-In, Version 1.7.0  -->
<svg xmlns="http://www.w3.org/2000/svg" xmlns:xlink="http://www.w3.org/1999/xlink" xmlns:shaper="http://www.shapertools.com/namespaces/shaper" shaper:fusionaddin="version:1.7.0" width="0.635cm" height="2.14122cm" version="1.1" x="0cm" y="0cm" viewBox="0 0 0.635 2.14122" enable-background="new 0 0 0.635 2.14122" xml:space="preserve"><g id="Body_Body1"><path d="M3.1299842,3.1642333 A0.254,0.254 229.3745726 0,0 3.0413664,3.3570149 L3.0413664,4.5107541 A0.254,0.254 0 0,1 3.0158415,4.6217277 L2.9688781,4.718417 A0.0507185,0.0507185 25.906508 0,1 2.8776347,4.718417 L2.8306713,4.6217277 A0.254,0.254 154.093492 0,1 2.8051464,4.5107541 L2.8051464,3.3570149 A0.254,0.254 0 0,0 2.7165286,3.1642333 A0.3175,0.3175 130.6254274 1,1 3.1299842,3.1642333z" transform="matrix(1,0,0,-1,-2.6057564,4.7469764)" fill="rgb(0,0,0)" shaper:cutDepth="0.0762cm" stroke-linecap="round" stroke-linejoin="round" /><path d="M2.8732564,2.9232564 a0.05,0.05 0 1,1 0.1,0 a0.05,0.05 0 1,1 -0.1,0z" transform="matrix(1,0,0,-1,-2.6057564,4.7469764)" fill="rgb(255,255,255)" stroke="rgb(0,0,0)" stroke-width="0.0010cm" stroke-linecap="round" stroke-linejoin="round" shaper:cutDepth="0.0762cm" /></g></svg>