<?xml version="1.0" encoding="utf-8"?>
<!-- Generator: Fusion 360, Shaper Origin Export Add-In, Version 1.7.0  -->
<svg xmlns="http://www.w3.org/2000/svg" xmlns:xlink="http://www.w3.org/1999/xlink" xmlns:shaper="http://www.shapertools.com/namespaces/shaper" shaper:fusionaddin="version:1.7.0" width="34.1988103cm" height="7.62cm" version="1.1" x="0cm" y="0cm" viewBox="0 0 34.1988103 7.62" enable-background="new 0 0 34.1988103 7.62" xml:space="preserve"><path d="M17.0994052,3.81 L-17.0994052,3.81 -14.0207253,-3.81 17.0994052,-3.81 17.0994052,3.81z" transform="matrix(1,0,0,-1,17.0994052,3.81)" fill="rgb(0,0,0)" stroke-linecap="round" stroke-linejoin="round" /><path d="M11.3311601,0 a0.325,0.325 0 1,1 0.65,0 a0.325,0.325 0 1,1 -0.65,0z" transform="matrix(1,0,0,-1,17.0994052,3.81)" fill="rgb(255,255,255)" stroke="rgb(0,0,0)" stroke-width="0.0010cm" stroke-linecap="round" stroke-linejoin="round" /><path d="M-10.4418202,0 a0.325,0.325 0 1,1 0.65,0 a0.325,0.325 0 1,1 -0.65,0z" transform="matrix(1,0,0,-1,17.0994052,3.81)" fill="rgb(255,255,255)" stroke="rgb(0,0,0)" stroke-width="0.0010cm" stroke-linecap="round" stroke-linejoin="round" /></svg>