<?xml version="1.0" encoding="utf-8"?>
<!-- Generator: Fusion 360, Shaper Origin Export Add-In, Version 1.7.0  -->
<svg xmlns="http://www.w3.org/2000/svg" xmlns:xlink="http://www.w3.org/1999/xlink" xmlns:shaper="http://www.shapertools.com/namespaces/shaper" shaper:fusionaddin="version:1.7.0" width="25.0187739cm" height="1.9cm" version="1.1" x="0cm" y="0cm" viewBox="0 0 25.0187739 1.9" enable-background="new 0 0 25.0187739 1.9" xml:space="preserve"><path d="M-12.509387,0.95 L-12.509387,-0.95 12.509387,-0.95 12.509387,0.95 -12.509387,0.95z" transform="matrix(1,0,0,-1,12.509387,0.95)" fill="rgb(0,0,0)" stroke-linecap="round" stroke-linejoin="round" /><path d="M-6.5546935,0.0025 a0.3,0.3 0 1,1 0.6,0 a0.3,0.3 0 1,1 -0.6,0z" transform="matrix(1,0,0,-1,12.509387,0.95)" fill="rgb(255,255,255)" stroke="rgb(0,0,0)" stroke-width="0.0010cm" stroke-linecap="round" stroke-linejoin="round" /><path d="M5.9546935,0.0025 a0.3,0.3 0 1,1 0.6,0 a0.3,0.3 0 1,1 -0.6,0z" transform="matrix(1,0,0,-1,12.509387,0.95)" fill="rgb(255,255,255)" stroke="rgb(0,0,0)" stroke-width="0.0010cm" stroke-linecap="round" stroke-linejoin="round" /></svg>