<?xml version="1.0" encoding="utf-8"?>
<!-- Generator: Fusion 360, Shaper Origin Export Add-In, Version 1.7.0  -->
<svg xmlns="http://www.w3.org/2000/svg" xmlns:xlink="http://www.w3.org/1999/xlink" xmlns:shaper="http://www.shapertools.com/namespaces/shaper" shaper:fusionaddin="version:1.7.0" width="20.2441611cm" height="1.9cm" version="1.1" x="0cm" y="0cm" viewBox="0 0 20.2441611 1.9" enable-background="new 0 0 20.2441611 1.9" xml:space="preserve"><path d="M10.1112423,-1.4737393 L-10.1329175,-1.4737393 -10.1329188,0.4262607 10.1112423,0.4262607 10.1112423,-1.4737393z" transform="matrix(1,0,0,-1,10.1329188,0.4262607)" fill="rgb(0,0,0)" stroke-linecap="round" stroke-linejoin="round" /><path d="M-8.7836224,-0.5262871 a0.1,0.1 0 1,1 0.2,0 a0.1,0.1 0 1,1 -0.2,0z" transform="matrix(1,0,0,-1,10.1329188,0.4262607)" fill="rgb(255,255,255)" stroke="rgb(0,0,0)" stroke-width="0.0010cm" stroke-linecap="round" stroke-linejoin="round" /><path d="M-0.1108898,-0.5262393 a0.1,0.1 0 1,1 0.2,0 a0.1,0.1 0 1,1 -0.2,0z" transform="matrix(1,0,0,-1,10.1329188,0.4262607)" fill="rgb(255,255,255)" stroke="rgb(0,0,0)" stroke-width="0.0010cm" stroke-linecap="round" stroke-linejoin="round" /><path d="M9.1009266,-0.5262393 a0.1,0.1 0 1,1 0.2,0 a0.1,0.1 0 1,1 -0.2,0z" transform="matrix(1,0,0,-1,10.1329188,0.4262607)" fill="rgb(255,255,255)" stroke="rgb(0,0,0)" stroke-width="0.0010cm" stroke-linecap="round" stroke-linejoin="round" /><path d="M6.2391102,-0.5262393 a0.1,0.1 0 1,1 0.2,0 a0.1,0.1 0 1,1 -0.2,0z" transform="matrix(1,0,0,-1,10.1329188,0.4262607)" fill="rgb(255,255,255)" stroke="rgb(0,0,0)" stroke-width="0.0010cm" stroke-linecap="round" stroke-linejoin="round" /><path d="M3.0641102,-0.5262393 a0.1,0.1 0 1,1 0.2,0 a0.1,0.1 0 1,1 -0.2,0z" transform="matrix(1,0,0,-1,10.1329188,0.4262607)" fill="rgb(255,255,255)" stroke="rgb(0,0,0)" stroke-width="0.0010cm" stroke-linecap="round" stroke-linejoin="round" /><path d="M-3.2858898,-0.5262393 a0.1,0.1 0 1,1 0.2,0 a0.1,0.1 0 1,1 -0.2,0z" transform="matrix(1,0,0,-1,10.1329188,0.4262607)" fill="rgb(255,255,255)" stroke="rgb(0,0,0)" stroke-width="0.0010cm" stroke-linecap="round" stroke-linejoin="round" /><path d="M-6.4608898,-0.5262393 a0.1,0.1 0 1,1 0.2,0 a0.1,0.1 0 1,1 -0.2,0z" transform="matrix(1,0,0,-1,10.1329188,0.4262607)" fill="rgb(255,255,255)" stroke="rgb(0,0,0)" stroke-width="0.0010cm" stroke-linecap="round" stroke-linejoin="round" /></svg>