<?xml version="1.0" encoding="utf-8"?>
<!-- Generator: Fusion 360, Shaper Origin Export Add-In, Version 1.7.0  -->
<svg xmlns="http://www.w3.org/2000/svg" xmlns:xlink="http://www.w3.org/1999/xlink" xmlns:shaper="http://www.shapertools.com/namespaces/shaper" shaper:fusionaddin="version:1.7.0" width="12.7cm" height="1.9cm" version="1.1" x="0cm" y="0cm" viewBox="0 0 12.7 1.9" enable-background="new 0 0 12.7 1.9" xml:space="preserve"><path d="M6.35,0.95 L-6.35,0.95 -6.35,-0.95 6.35,-0.95 6.35,0.95z" transform="matrix(1,0,0,-1,6.35,0.95)" fill="rgb(0,0,0)" stroke-linecap="round" stroke-linejoin="round" /><path d="M3.71,-0.0025 a0.1,0.1 0 1,1 0.2,0 a0.1,0.1 0 1,1 -0.2,0z" transform="matrix(1,0,0,-1,6.35,0.95)" fill="rgb(255,255,255)" stroke="rgb(0,0,0)" stroke-width="0.0010cm" stroke-linecap="round" stroke-linejoin="round" /><path d="M-3.91,-0.0025 a0.1,0.1 0 1,1 0.2,0 a0.1,0.1 0 1,1 -0.2,0z" transform="matrix(1,0,0,-1,6.35,0.95)" fill="rgb(255,255,255)" stroke="rgb(0,0,0)" stroke-width="0.0010cm" stroke-linecap="round" stroke-linejoin="round" /></svg>