<?xml version="1.0" encoding="utf-8"?>
<!-- Generator: Fusion 360, Shaper Origin Export Add-In, Version 1.7.0  -->
<svg xmlns="http://www.w3.org/2000/svg" xmlns:xlink="http://www.w3.org/1999/xlink" xmlns:shaper="http://www.shapertools.com/namespaces/shaper" shaper:fusionaddin="version:1.7.0" width="5.08cm" height="1.9cm" version="1.1" x="0cm" y="0cm" viewBox="0 0 5.08 1.9" enable-background="new 0 0 5.08 1.9" xml:space="preserve"><path d="M-2.5399573,-1.47375 L2.5400427,-1.47375 2.5400427,0.42625 -2.5399573,0.42625 -2.5399573,-1.47375z" transform="matrix(1,0,0,-1,2.5399573,0.42625)" fill="rgb(0,0,0)" stroke-linecap="round" stroke-linejoin="round" /><path d="M-1.6874571,-0.52625 a0.1,0.1 0 1,1 0.2,0 a0.1,0.1 0 1,1 -0.2,0z" transform="matrix(1,0,0,-1,2.5399573,0.42625)" fill="rgb(255,255,255)" stroke="rgb(0,0,0)" stroke-width="0.0010cm" stroke-linecap="round" stroke-linejoin="round" /><path d="M-0.0999571,-0.52625 a0.1,0.1 0 1,1 0.2,0 a0.1,0.1 0 1,1 -0.2,0z" transform="matrix(1,0,0,-1,2.5399573,0.42625)" fill="rgb(255,255,255)" stroke="rgb(0,0,0)" stroke-width="0.0010cm" stroke-linecap="round" stroke-linejoin="round" /></svg>