<?xml version="1.0" encoding="utf-8"?>
<!-- Generator: Fusion 360, Shaper Origin Export Add-In, Version 1.7.0  -->
<svg xmlns="http://www.w3.org/2000/svg" xmlns:xlink="http://www.w3.org/1999/xlink" xmlns:shaper="http://www.shapertools.com/namespaces/shaper" shaper:fusionaddin="version:1.7.0" width="14.605cm" height="7.62cm" version="1.1" x="0cm" y="0cm" viewBox="0 0 14.605 7.62" enable-background="new 0 0 14.605 7.62" xml:space="preserve"><path d="M-7.3025,-2.9073462 L-7.3025,4.7126538 7.3025,4.7126538 7.3025,-2.9073462 -7.3025,-2.9073462z" transform="matrix(1,0,0,-1,7.3025,4.7126538)" fill="rgb(0,0,0)" shaper:cutDepth="0.3175cm" stroke-linecap="round" stroke-linejoin="round" /><path d="M6.2865004,-1.0975961 L6.2865004,-0.5509574 A0.15875,0.15875 0 0,1 6.1277504,-0.3922074 L4.930573,-0.3922074 A0.15875,0.15875 90 0,1 4.771823,-0.5509574 L4.771823,-1.0975961 A0.15875,0.15875 180 0,1 4.930573,-1.2563461 L6.1277504,-1.2563461 A0.15875,0.15875 270 0,1 6.2865004,-1.0975961z" transform="matrix(1,0,0,-1,7.3025,4.7126538)" fill="rgb(255,255,255)" stroke="rgb(0,0,0)" stroke-width="0.0010cm" stroke-linecap="round" stroke-linejoin="round" shaper:cutDepth="0.3175cm" /><path d="M3.492094,3.9506538 L3.2702499,3.9506538 A0.15875,0.15875 90 0,1 3.1114999,3.7919038 L3.1114999,3.3668596 A0.15875,0.15875 0 0,0 2.9527499,3.2081096 L2.5336499,3.2081096 A0.15875,0.15875 270 0,0 2.3748999,3.3668596 L2.3748999,4.4399638 A0.15875,0.15875 180 0,0 2.5336499,4.5987138 L3.492094,4.5987138 A0.15875,0.15875 90 0,0 3.650844,4.4399638 L3.650844,4.1094038 A0.15875,0.15875 0 0,0 3.492094,3.9506538z" transform="matrix(1,0,0,-1,7.3025,4.7126538)" fill="rgb(255,255,255)" stroke="rgb(0,0,0)" stroke-width="0.0010cm" stroke-linecap="round" stroke-linejoin="round" shaper:cutDepth="0.3175cm" /><path d="M0.1781937,-1.3833461 L-1.4287498,-1.3833461 A0.15875,0.15875 90 0,1 -1.5874998,-1.5420961 L-1.5874998,-2.0328517 A0.15875,0.15875 180 0,1 -1.4287498,-2.1916017 L0.1781937,-2.1916017 A0.15875,0.15875 270 0,1 0.3369437,-2.0328517 L0.3369437,-1.5420961 A0.15875,0.15875 0 0,1 0.1781937,-1.3833461z" transform="matrix(1,0,0,-1,7.3025,4.7126538)" fill="rgb(255,255,255)" stroke="rgb(0,0,0)" stroke-width="0.0010cm" stroke-linecap="round" stroke-linejoin="round" shaper:cutDepth="0.3175cm" /><path d="M-0.4254501,4.3570538 L-0.7937501,4.3570538 A0.15875,0.15875 90 0,1 -0.9525001,4.1983038 L-0.9525001,3.8808038 A0.15875,0.15875 180 0,1 -0.7937501,3.7220538 L-0.4254501,3.7220538 A0.15875,0.15875 270 0,1 -0.2667001,3.8808038 L-0.2667001,4.1983038 A0.15875,0.15875 0 0,1 -0.4254501,4.3570538z" transform="matrix(1,0,0,-1,7.3025,4.7126538)" fill="rgb(255,255,255)" stroke="rgb(0,0,0)" stroke-width="0.0010cm" stroke-linecap="round" stroke-linejoin="round" shaper:cutDepth="0.3175cm" /><path d="M0.9405683,0.5956402 L0.563313,0.5956402 A0.15875,0.15875 90 0,1 0.404563,0.4368902 L0.404563,0.2118992 A0.15875,0.15875 0 0,0 0.245813,0.0531492 L-1.4287501,0.0531492 A0.15875,0.15875 270 0,0 -1.5875001,0.2118992 L-1.5875001,0.4406036 A0.15875,0.15875 0 0,1 -1.7462501,0.5993536 L-1.9254455,0.5993536 A0.15875,0.15875 270 0,0 -2.0841955,0.7581036 L-2.0841955,1.0975961 A0.15875,0.15875 180 0,0 -1.9254455,1.2563461 L0.9405683,1.2563461 A0.15875,0.15875 90 0,0 1.0993183,1.0975961 L1.0993183,0.7543902 A0.15875,0.15875 0 0,0 0.9405683,0.5956402z" transform="matrix(1,0,0,-1,7.3025,4.7126538)" fill="rgb(255,255,255)" stroke="rgb(0,0,0)" stroke-width="0.0010cm" stroke-linecap="round" stroke-linejoin="round" shaper:cutDepth="0.3175cm" /><path d="M-5.1541701,0.1575177 L-5.51815,0.1575177 A0.15875,0.15875 90 0,1 -5.6769,-0.0012323 L-5.6769,-1.1418639 A0.15875,0.15875 180 0,1 -5.51815,-1.3006139 L-5.1541701,-1.3006139 A0.15875,0.15875 270 0,1 -4.9954201,-1.1418639 L-4.9954201,-0.0012323 A0.15875,0.15875 0 0,1 -5.1541701,0.1575177z" transform="matrix(1,0,0,-1,7.3025,4.7126538)" fill="rgb(255,255,255)" stroke="rgb(0,0,0)" stroke-width="0.0010cm" stroke-linecap="round" stroke-linejoin="round" shaper:cutDepth="0.3175cm" /><path d="M-3.9301116,4.4777037 L-3.9301116,3.9824038 A0.15875,0.15875 180 0,1 -3.7713616,3.8236538 L-2.7114501,3.8236538 A0.15875,0.15875 270 0,1 -2.5527001,3.9824038 L-2.5527001,4.4777037 A0.15875,0.15875 0 0,1 -2.7114501,4.6364537 L-3.7713616,4.6364537 A0.15875,0.15875 90 0,1 -3.9301116,4.4777037z" transform="matrix(1,0,0,-1,7.3025,4.7126538)" fill="rgb(255,255,255)" stroke="rgb(0,0,0)" stroke-width="0.0010cm" stroke-linecap="round" stroke-linejoin="round" shaper:cutDepth="0.3175cm" /><path d="M-6.02615,3.6712538 L-5.88645,3.6712538 A0.15875,0.15875 270 0,1 -5.7277,3.8300038 L-5.7277,4.4523037 A0.15875,0.15875 180 0,0 -5.56895,4.6110537 L-4.48945,4.6110537 A0.15875,0.15875 90 0,0 -4.3307,4.4523037 L-4.3307,4.1348038 A0.15875,0.15875 0 0,0 -4.48945,3.9760538 L-4.65455,3.9760538 A0.15875,0.15875 90 0,1 -4.8133,3.8173038 L-4.8133,2.5092038 A0.15875,0.15875 0 0,0 -4.97205,2.3504538 L-5.36575,2.3504538 A0.15875,0.15875 270 0,0 -5.5245,2.5092038 L-5.5245,2.7251038 A0.15875,0.15875 0 0,1 -5.68325,2.8838538 L-6.02615,2.8838538 A0.15875,0.15875 270 0,0 -6.1849,3.0426038 L-6.1849,3.5125038 A0.15875,0.15875 180 0,0 -6.02615,3.6712538z" transform="matrix(1,0,0,-1,7.3025,4.7126538)" fill="rgb(255,255,255)" stroke="rgb(0,0,0)" stroke-width="0.0010cm" stroke-linecap="round" stroke-linejoin="round" shaper:cutDepth="0.3175cm" /><path d="M-4.9956611,0.899092 L-4.9956611,0.4264038 A0.15875,0.15875 180 0,1 -4.8369111,0.2676538 L-4.6141097,0.2676538 -4.6141097,0.2675249 -4.4268202,0.2675249 A0.15875,0.15875 270 0,1 -4.2680702,0.4262749 L-4.2680702,0.899092 A0.15875,0.15875 0 0,1 -4.4268202,1.057842 L-4.8369111,1.057842 A0.15875,0.15875 90 0,1 -4.9956611,0.899092z" transform="matrix(1,0,0,-1,7.3025,4.7126538)" fill="rgb(255,255,255)" stroke="rgb(0,0,0)" stroke-width="0.0010cm" stroke-linecap="round" stroke-linejoin="round" shaper:cutDepth="0.3175cm" /><path d="M-1.3334998,-0.8912153 L-1.3334998,-0.6851383 A0.635,0.635 180.0256232 1,1 -1.3334999,-0.6845704 L-1.3334998,-0.4703535 A0.15875,0.15875 0 0,1 -1.4922498,-0.3116035 L-1.9048,-0.3116035 A0.15875,0.15875 90 0,1 -2.06355,-0.4703535 L-2.06355,-0.8912153 A0.15875,0.15875 180 0,1 -1.9048,-1.0499653 L-1.4922498,-1.0499653 A0.15875,0.15875 270 0,1 -1.3334998,-0.8912153z" transform="matrix(1,0,0,-1,7.3025,4.7126538)" fill="rgb(255,255,255)" stroke="rgb(0,0,0)" stroke-width="0.0010cm" stroke-linecap="round" stroke-linejoin="round" shaper:cutDepth="0.3175cm" /><path d="M-2.1232804,3.4481005 L-2.1232804,2.9661266 A0.15875,0.15875 180 0,1 -1.9645304,2.8073766 L-0.8973682,2.8073766 A0.15875,0.15875 270 0,1 -0.7386182,2.9661266 L-0.7386182,3.4481005 A0.15875,0.15875 0 0,1 -0.8973682,3.6068505 L-1.9645304,3.6068505 A0.15875,0.15875 90 0,1 -2.1232804,3.4481005z" transform="matrix(1,0,0,-1,7.3025,4.7126538)" fill="rgb(255,255,255)" stroke="rgb(0,0,0)" stroke-width="0.0010cm" stroke-linecap="round" stroke-linejoin="round" shaper:cutDepth="0.3175cm" /><path d="M0.4477529,1.7862828 L0.4477529,2.0529789 A0.15875,0.15875 0 0,1 0.2890029,2.2117289 L-0.3272928,2.2117289 A0.15875,0.15875 90 0,1 -0.4860428,2.0529789 L-0.4860428,1.7862828 A0.15875,0.15875 180 0,1 -0.3272928,1.6275328 L0.2890029,1.6275328 A0.15875,0.15875 270 0,1 0.4477529,1.7862828z" transform="matrix(1,0,0,-1,7.3025,4.7126538)" fill="rgb(255,255,255)" stroke="rgb(0,0,0)" stroke-width="0.0010cm" stroke-linecap="round" stroke-linejoin="round" shaper:cutDepth="0.3175cm" /><path d="M4.8577499,1.9186538 L4.8450499,1.9186538 A0.15875,0.15875 90 0,1 4.6862999,1.7599038 L4.6862999,1.6964038 A0.15875,0.15875 0 0,0 4.5275499,1.5376538 L4.4640499,1.5376538 A0.15875,0.15875 90 0,1 4.3052999,1.3789038 L4.3052999,0.3756038 A0.15875,0.15875 0 0,0 4.1465499,0.2168538 L3.7886979,0.2168538 A0.15875,0.15875 270 0,0 3.6299479,0.3756038 L3.6299479,1.3789038 A0.15875,0.15875 0 0,1 3.4711979,1.5376538 L3.4043658,1.5376538 A0.15875,0.15875 270 0,0 3.2456158,1.6964038 L3.2456158,1.8708259 2.9281158,2.1883259 1.9494499,2.1883259 A0.15875,0.15875 270 0,0 1.7906999,2.3470759 L1.7906999,2.7941879 A0.15875,0.15875 180 0,0 1.9494499,2.9529379 L3.0543499,2.9529379 A0.15875,0.15875 90 0,0 3.2130999,2.7941879 L3.2130999,2.6645759 3.5305999,2.3470759 4.8577499,2.3470759 A0.15875,0.15875 90 0,0 5.0164999,2.1883259 L5.0164999,2.0774038 A0.15875,0.15875 0 0,0 4.8577499,1.9186538z" transform="matrix(1,0,0,-1,7.3025,4.7126538)" fill="rgb(255,255,255)" stroke="rgb(0,0,0)" stroke-width="0.0010cm" stroke-linecap="round" stroke-linejoin="round" shaper:cutDepth="0.3175cm" /><path d="M6.10067,-0.0263187 L6.10067,0.9602369 A0.15875,0.15875 0 0,1 5.94192,1.1189869 L4.6268727,1.1189869 A0.15875,0.15875 90 0,1 4.4681227,0.9602369 L4.4681227,-0.0263187 A0.15875,0.15875 180 0,1 4.6268727,-0.1850687 L5.94192,-0.1850687 A0.15875,0.15875 270 0,1 6.10067,-0.0263187z" transform="matrix(1,0,0,-1,7.3025,4.7126538)" fill="rgb(255,255,255)" stroke="rgb(0,0,0)" stroke-width="0.0010cm" stroke-linecap="round" stroke-linejoin="round" shaper:cutDepth="0.3175cm" /><path d="M3.6094135,-1.6436962 L3.6094135,-2.5154923 A0.15875,0.15875 180 0,1 3.7681635,-2.6742423 L5.7467504,-2.6742423 A0.15875,0.15875 270 0,1 5.9055004,-2.5154923 L5.9055004,-1.6436962 A0.15875,0.15875 0 0,1 5.7467504,-1.4849462 L3.7681635,-1.4849462 A0.15875,0.15875 90 0,1 3.6094135,-1.6436962z" transform="matrix(1,0,0,-1,7.3025,4.7126538)" fill="rgb(255,255,255)" stroke="rgb(0,0,0)" stroke-width="0.0010cm" stroke-linecap="round" stroke-linejoin="round" shaper:cutDepth="0.3175cm" /><path d="M4.9593498,4.6169979 L4.3624499,4.6169979 A0.15875,0.15875 90 0,1 4.2036999,4.4582479 L4.2036999,4.0911197 A0.15875,0.15875 180 0,1 4.3624499,3.9323697 L4.9593498,3.9323697 A0.15875,0.15875 270 0,1 5.1180998,4.0911197 L5.1180998,4.4582479 A0.15875,0.15875 0 0,1 4.9593498,4.6169979z" transform="matrix(1,0,0,-1,7.3025,4.7126538)" fill="rgb(255,255,255)" stroke="rgb(0,0,0)" stroke-width="0.0010cm" stroke-linecap="round" stroke-linejoin="round" shaper:cutDepth="0.3175cm" /><path d="M0.7175499,-0.2403462 L0.1460499,-0.2403462 A0.15875,0.15875 90 0,1 -0.0127001,-0.3990962 L-0.0127001,-0.8943962 A0.15875,0.15875 180 0,1 0.1460499,-1.0531462 L0.7175499,-1.0531462 A0.15875,0.15875 270 0,1 0.8762999,-0.8943962 L0.8762999,-0.3990962 A0.15875,0.15875 0 0,1 0.7175499,-0.2403462z" transform="matrix(1,0,0,-1,7.3025,4.7126538)" fill="rgb(255,255,255)" stroke="rgb(0,0,0)" stroke-width="0.0010cm" stroke-linecap="round" stroke-linejoin="round" shaper:cutDepth="0.3175cm" /><path d="M0.1396999,4.1983038 L0.1396999,3.8808038 A0.15875,0.15875 180 0,1 0.2984499,3.7220538 L0.6159499,3.7220538 A0.15875,0.15875 270 0,1 0.7746999,3.8808038 L0.7746999,4.1983038 A0.15875,0.15875 0 0,1 0.6159499,4.3570538 L0.2984499,4.3570538 A0.15875,0.15875 90 0,1 0.1396999,4.1983038z" transform="matrix(1,0,0,-1,7.3025,4.7126538)" fill="rgb(255,255,255)" stroke="rgb(0,0,0)" stroke-width="0.0010cm" stroke-linecap="round" stroke-linejoin="round" shaper:cutDepth="0.3175cm" /><path d="M-2.2796501,1.8375077 L-2.8765501,1.8375077 A0.15875,0.15875 90 0,1 -3.0353001,1.6787577 L-3.0353001,1.2197823 A0.15875,0.15875 180 0,1 -2.8765501,1.0610323 L-2.2796501,1.0610323 A0.15875,0.15875 270 0,1 -2.1209001,1.2197823 L-2.1209001,1.6787577 A0.15875,0.15875 0 0,1 -2.2796501,1.8375077z" transform="matrix(1,0,0,-1,7.3025,4.7126538)" fill="rgb(255,255,255)" stroke="rgb(0,0,0)" stroke-width="0.0010cm" stroke-linecap="round" stroke-linejoin="round" shaper:cutDepth="0.3175cm" /><path d="M-3.2807332,-1.4595462 L-4.83235,-1.4595462 A0.15875,0.15875 90 0,1 -4.9911,-1.6182962 L-4.9911,-2.1389962 A0.15875,0.15875 180 0,1 -4.83235,-2.2977462 L-3.2807332,-2.2977462 A0.15875,0.15875 270 0,1 -3.1219832,-2.1389962 L-3.1219832,-1.6182962 A0.15875,0.15875 0 0,1 -3.2807332,-1.4595462z" transform="matrix(1,0,0,-1,7.3025,4.7126538)" fill="rgb(255,255,255)" stroke="rgb(0,0,0)" stroke-width="0.0010cm" stroke-linecap="round" stroke-linejoin="round" shaper:cutDepth="0.3175cm" /><path d="M-3.4291384,3.3373808 L-3.4291384,2.9123134 A0.15875,0.15875 180 0,1 -3.2703884,2.7535634 L-2.6857915,2.7535634 A0.15875,0.15875 270 0,1 -2.5270415,2.9123134 L-2.5270415,3.3373808 A0.15875,0.15875 0 0,1 -2.6857915,3.4961308 L-3.2703884,3.4961308 A0.15875,0.15875 90 0,1 -3.4291384,3.3373808z" transform="matrix(1,0,0,-1,7.3025,4.7126538)" fill="rgb(255,255,255)" stroke="rgb(0,0,0)" stroke-width="0.0010cm" stroke-linecap="round" stroke-linejoin="round" shaper:cutDepth="0.3175cm" /><path d="M-6.16585,1.7916538 L-6.7546968,1.7916538 A0.15875,0.15875 90 0,1 -6.9134468,1.6329038 L-6.9134468,0.0368544 A0.15875,0.15875 180 0,1 -6.7546968,-0.1218956 L-6.16585,-0.1218956 A0.15875,0.15875 270 0,1 -6.0071,0.0368544 L-6.0071,1.6329038 A0.15875,0.15875 0 0,1 -6.16585,1.7916538z" transform="matrix(1,0,0,-1,7.3025,4.7126538)" fill="rgb(255,255,255)" stroke="rgb(0,0,0)" stroke-width="0.0010cm" stroke-linecap="round" stroke-linejoin="round" shaper:cutDepth="0.3175cm" /><path d="M-3.6195,2.2933038 L-3.6195,2.0012038 A0.15875,0.15875 180 0,1 -3.46075,1.8424538 L-3.4604848,1.8424538 A0.15875,0.15875 90 0,0 -3.3017348,1.6837038 L-3.3017348,0.9766599 A0.15875,0.15875 53.0103356 0,0 -3.2385,0.8498593 L-3.2385,0.5534038 A0.15875,0.15875 0 0,0 -3.39725,0.3946538 L-3.9607236,0.3946538 A0.15875,0.15875 270 0,0 -4.1194736,0.5534038 L-4.1194736,1.0963408 A0.15875,0.15875 233.6150832 0,0 -4.184052,1.2241425 L-4.184052,1.6837038 A0.15875,0.15875 0 0,1 -4.342802,1.8424538 L-4.3483804,1.8424538 A0.15875,0.15875 270 0,0 -4.5071304,2.0012038 L-4.5071304,2.2933038 A0.15875,0.15875 180 0,0 -4.3483804,2.4520538 L-3.77825,2.4520538 A0.15875,0.15875 90 0,0 -3.6195,2.2933038z" transform="matrix(1,0,0,-1,7.3025,4.7126538)" fill="rgb(255,255,255)" stroke="rgb(0,0,0)" stroke-width="0.0010cm" stroke-linecap="round" stroke-linejoin="round" shaper:cutDepth="0.3175cm" /><path d="M-3.4424743,-0.4781895 L-3.4424743,-0.8918725 A0.15875,0.15875 180 0,1 -3.2837243,-1.0506225 L-2.7622499,-1.0506225 A0.15875,0.15875 270 0,1 -2.6034999,-0.8918725 L-2.6034999,-0.4781895 A0.15875,0.15875 0 0,1 -2.7622499,-0.3194395 L-3.2837243,-0.3194395 A0.15875,0.15875 90 0,1 -3.4424743,-0.4781895z" transform="matrix(1,0,0,-1,7.3025,4.7126538)" fill="rgb(255,255,255)" stroke="rgb(0,0,0)" stroke-width="0.0010cm" stroke-linecap="round" stroke-linejoin="round" shaper:cutDepth="0.3175cm" /><path d="M-2.1644633,2.5219038 L-2.1644633,2.0774038 A0.15875,0.15875 180 0,1 -2.0057133,1.9186538 L-0.9548138,1.9186538 A0.15875,0.15875 270 0,1 -0.7960638,2.0774038 L-0.7960638,2.5219038 A0.15875,0.15875 0 0,1 -0.9548138,2.6806538 L-2.0057133,2.6806538 A0.15875,0.15875 90 0,1 -2.1644633,2.5219038z" transform="matrix(1,0,0,-1,7.3025,4.7126538)" fill="rgb(255,255,255)" stroke="rgb(0,0,0)" stroke-width="0.0010cm" stroke-linecap="round" stroke-linejoin="round" shaper:cutDepth="0.3175cm" /><path d="M0.7810499,2.6044538 L1.3017499,2.6044538 A0.15875,0.15875 270 0,1 1.4604999,2.7632038 L1.4604999,3.1061038 A0.15875,0.15875 0 0,1 1.3017499,3.2648538 L0.7810499,3.2648538 A0.15875,0.15875 90 0,1 0.6222999,3.1061038 L0.6222999,2.7632038 A0.15875,0.15875 180 0,1 0.7810499,2.6044538z" transform="matrix(1,0,0,-1,7.3025,4.7126538)" fill="rgb(255,255,255)" stroke="rgb(0,0,0)" stroke-width="0.0010cm" stroke-linecap="round" stroke-linejoin="round" shaper:cutDepth="0.3175cm" /><path d="M3.3218545,1.0837042 L2.527304,1.0837042 A0.15875,0.15875 90 0,1 2.368554,0.9249542 L2.368554,-0.2403462 1.4668499,-0.2403462 A0.15875,0.15875 90 0,1 1.3080999,-0.3990962 L1.3080999,-0.9705961 A0.15875,0.15875 180 0,1 1.4668499,-1.1293461 L2.6612752,-1.1293461 A0.15875,0.15875 270 0,1 2.8200252,-0.9705961 L2.8200252,-0.1932081 3.3218545,-0.1932081 A0.15875,0.15875 270 0,1 3.4806045,-0.0344581 L3.4806045,0.9249542 A0.15875,0.15875 0 0,1 3.3218545,1.0837042z" transform="matrix(1,0,0,-1,7.3025,4.7126538)" fill="rgb(255,255,255)" stroke="rgb(0,0,0)" stroke-width="0.0010cm" stroke-linecap="round" stroke-linejoin="round" shaper:cutDepth="0.3175cm" /><path d="M5.1142161,2.7893697 L5.1142161,2.4580759 A0.15875,0.15875 180 0,1 5.2729661,2.2993259 L5.4165498,2.2993259 A0.15875,0.15875 270 0,1 5.5752998,2.4580759 L5.5752998,3.3093038 A0.15875,0.15875 0 0,1 5.4165498,3.4680538 L4.7942499,3.4680538 A0.15875,0.15875 90 0,1 4.6354999,3.3093038 L4.6354999,2.9481197 A0.15875,0.15875 180 0,1 4.7942499,2.7893697 L5.1142161,2.7893697z" transform="matrix(1,0,0,-1,7.3025,4.7126538)" fill="rgb(255,255,255)" stroke="rgb(0,0,0)" stroke-width="0.0010cm" stroke-linecap="round" stroke-linejoin="round" shaper:cutDepth="0.3175cm" /><path d="M1.6890999,-1.6228001 L1.6890999,-2.389664 A0.15875,0.15875 180 0,1 1.8478499,-2.548414 L3.032282,-2.548414 A0.15875,0.15875 270 0,1 3.191032,-2.389664 L3.191032,-1.6228001 A0.15875,0.15875 0 0,1 3.032282,-1.4640501 L1.8478499,-1.4640501 A0.15875,0.15875 90 0,1 1.6890999,-1.6228001z" transform="matrix(1,0,0,-1,7.3025,4.7126538)" fill="rgb(255,255,255)" stroke="rgb(0,0,0)" stroke-width="0.0010cm" stroke-linecap="round" stroke-linejoin="round" shaper:cutDepth="0.3175cm" /><path d="M-2.2624544,4.1921635 a0.135255,0.135255 0 1,1 0.27051,0 a0.135255,0.135255 0 1,1 -0.27051,0z" transform="matrix(1,0,0,-1,7.3025,4.7126538)" fill="rgb(255,255,255)" stroke="rgb(0,0,0)" stroke-width="0.0010cm" stroke-linecap="round" stroke-linejoin="round" shaper:cutDepth="0.3175cm" /><path d="M1.7375456,4.1921635 a0.135255,0.135255 0 1,1 0.27051,0 a0.135255,0.135255 0 1,1 -0.27051,0z" transform="matrix(1,0,0,-1,7.3025,4.7126538)" fill="rgb(255,255,255)" stroke="rgb(0,0,0)" stroke-width="0.0010cm" stroke-linecap="round" stroke-linejoin="round" shaper:cutDepth="0.3175cm" /><path d="M1.7375456,0.1921635 a0.135255,0.135255 0 1,1 0.27051,0 a0.135255,0.135255 0 1,1 -0.27051,0z" transform="matrix(1,0,0,-1,7.3025,4.7126538)" fill="rgb(255,255,255)" stroke="rgb(0,0,0)" stroke-width="0.0010cm" stroke-linecap="round" stroke-linejoin="round" shaper:cutDepth="0.3175cm" /><path d="M-2.2624544,0.1921635 a0.135255,0.135255 0 1,1 0.27051,0 a0.135255,0.135255 0 1,1 -0.27051,0z" transform="matrix(1,0,0,-1,7.3025,4.7126538)" fill="rgb(255,255,255)" stroke="rgb(0,0,0)" stroke-width="0.0010cm" stroke-linecap="round" stroke-linejoin="round" shaper:cutDepth="0.3175cm" /><path d="M-4.28625,4.062603 a0.15875,0.15875 0 1,1 0.3175,0 a0.15875,0.15875 0 1,1 -0.3175,0z" transform="matrix(1,0,0,-1,7.3025,4.7126538)" fill="rgb(255,255,255)" stroke="rgb(0,0,0)" stroke-width="0.0010cm" stroke-linecap="round" stroke-linejoin="round" shaper:cutDepth="0.3175cm" /><path d="M3.81635,4.062603 a0.15875,0.15875 0 1,1 0.3175,0 a0.15875,0.15875 0 1,1 -0.3175,0z" transform="matrix(1,0,0,-1,7.3025,4.7126538)" fill="rgb(255,255,255)" stroke="rgb(0,0,0)" stroke-width="0.0010cm" stroke-linecap="round" stroke-linejoin="round" shaper:cutDepth="0.3175cm" /><path d="M2.86385,-0.6848462 a0.15875,0.15875 0 1,1 0.3175,0 a0.15875,0.15875 0 1,1 -0.3175,0z" transform="matrix(1,0,0,-1,7.3025,4.7126538)" fill="rgb(255,255,255)" stroke="rgb(0,0,0)" stroke-width="0.0010cm" stroke-linecap="round" stroke-linejoin="round" shaper:cutDepth="0.3175cm" /><path d="M-0.22225,3.795903 a0.15875,0.15875 0 1,1 0.3175,0 a0.15875,0.15875 0 1,1 -0.3175,0z" transform="matrix(1,0,0,-1,7.3025,4.7126538)" fill="rgb(255,255,255)" stroke="rgb(0,0,0)" stroke-width="0.0010cm" stroke-linecap="round" stroke-linejoin="round" shaper:cutDepth="0.3175cm" /><path d="M-4.28625,0.252603 a0.15875,0.15875 0 1,1 0.3175,0 a0.15875,0.15875 0 1,1 -0.3175,0z" transform="matrix(1,0,0,-1,7.3025,4.7126538)" fill="rgb(255,255,255)" stroke="rgb(0,0,0)" stroke-width="0.0010cm" stroke-linecap="round" stroke-linejoin="round" shaper:cutDepth="0.3175cm" /><path d="M-4.7625,3.1251538 a0.635,0.635 0 1,1 1.27,0 a0.635,0.635 0 1,1 -1.27,0z" transform="matrix(1,0,0,-1,7.3025,4.7126538)" fill="rgb(255,255,255)" stroke="rgb(0,0,0)" stroke-width="0.0010cm" stroke-linecap="round" stroke-linejoin="round" shaper:cutDepth="0.3175cm" /><path d="M-0.6985,2.8584538 a0.635,0.635 0 1,1 1.27,0 a0.635,0.635 0 1,1 -1.27,0z" transform="matrix(1,0,0,-1,7.3025,4.7126538)" fill="rgb(255,255,255)" stroke="rgb(0,0,0)" stroke-width="0.0010cm" stroke-linecap="round" stroke-linejoin="round" shaper:cutDepth="0.3175cm" /><path d="M3.3401,3.1251538 a0.635,0.635 0 1,1 1.27,0 a0.635,0.635 0 1,1 -1.27,0z" transform="matrix(1,0,0,-1,7.3025,4.7126538)" fill="rgb(255,255,255)" stroke="rgb(0,0,0)" stroke-width="0.0010cm" stroke-linecap="round" stroke-linejoin="round" shaper:cutDepth="0.3175cm" /><path d="M-4.7625,-0.6848462 a0.635,0.635 0 1,1 1.27,0 a0.635,0.635 0 1,1 -1.27,0z" transform="matrix(1,0,0,-1,7.3025,4.7126538)" fill="rgb(255,255,255)" stroke="rgb(0,0,0)" stroke-width="0.0010cm" stroke-linecap="round" stroke-linejoin="round" shaper:cutDepth="0.3175cm" /><path d="M3.49885,-0.6848462 a0.47625,0.47625 0 1,1 0.9525,0 a0.47625,0.47625 0 1,1 -0.9525,0z" transform="matrix(1,0,0,-1,7.3025,4.7126538)" fill="rgb(255,255,255)" stroke="rgb(0,0,0)" stroke-width="0.0010cm" stroke-linecap="round" stroke-linejoin="round" shaper:cutDepth="0.3175cm" /><path d="M-7.028815,3.2839038 a0.215265,0.215265 0 1,1 0.43053,0 a0.215265,0.215265 0 1,1 -0.43053,0z" transform="matrix(1,0,0,-1,7.3025,4.7126538)" fill="rgb(255,255,255)" stroke="rgb(0,0,0)" stroke-width="0.0010cm" stroke-linecap="round" stroke-linejoin="round" shaper:cutDepth="0.3175cm" /><path d="M-7.028815,-1.4785962 a0.215265,0.215265 0 1,1 0.43053,0 a0.215265,0.215265 0 1,1 -0.43053,0z" transform="matrix(1,0,0,-1,7.3025,4.7126538)" fill="rgb(255,255,255)" stroke="rgb(0,0,0)" stroke-width="0.0010cm" stroke-linecap="round" stroke-linejoin="round" shaper:cutDepth="0.3175cm" /><path d="M6.598285,-1.4785962 a0.215265,0.215265 0 1,1 0.43053,0 a0.215265,0.215265 0 1,1 -0.43053,0z" transform="matrix(1,0,0,-1,7.3025,4.7126538)" fill="rgb(255,255,255)" stroke="rgb(0,0,0)" stroke-width="0.0010cm" stroke-linecap="round" stroke-linejoin="round" shaper:cutDepth="0.3175cm" /><path d="M6.598285,3.2839038 a0.215265,0.215265 0 1,1 0.43053,0 a0.215265,0.215265 0 1,1 -0.43053,0z" transform="matrix(1,0,0,-1,7.3025,4.7126538)" fill="rgb(255,255,255)" stroke="rgb(0,0,0)" stroke-width="0.0010cm" stroke-linecap="round" stroke-linejoin="round" shaper:cutDepth="0.3175cm" /><path d="M5.283835,1.6646538 a0.215265,0.215265 0 1,1 0.43053,0 a0.215265,0.215265 0 1,1 -0.43053,0z" transform="matrix(1,0,0,-1,7.3025,4.7126538)" fill="rgb(255,255,255)" stroke="rgb(0,0,0)" stroke-width="0.0010cm" stroke-linecap="round" stroke-linejoin="round" shaper:cutDepth="0.3175cm" /><path d="M-5.714365,1.6646538 a0.215265,0.215265 0 1,1 0.43053,0 a0.215265,0.215265 0 1,1 -0.43053,0z" transform="matrix(1,0,0,-1,7.3025,4.7126538)" fill="rgb(255,255,255)" stroke="rgb(0,0,0)" stroke-width="0.0010cm" stroke-linecap="round" stroke-linejoin="round" shaper:cutDepth="0.3175cm" /></svg>